# xmcd
# 
# Track frame offsets:
#     150
#     13750
#     26995
#     40817
#     54397
#     67762
#     80720
#     94680
#     106840
#     120605
#     135845
#     150287
#     161950
#     175102
#     186192
#     198185
#     212207
#     225387
#     238610
#     250562
#     264777
#     277627
#     290907
#     304757
#     315827
#     329347
# 
# Disc length: 4551
# 
# Revision: 2
# Processed by: cddbd v1.5.2PL0 Copyright (c) Steve Scherf et al.
# Submitted via: BonkEnc v1.0.6
# 
DISCID=4f11c51a
DTITLE=Joe Turner - Have No Fear, Big Joe Turner Is Here
DYEAR=0
DGENRE=
TTITLE0=S. K. Blues, Part 1
TTITLE1=S. K. Blues, Part 2
TTITLE2=Johnson And Turner Blues
TTITLE3=Johnson And Turner Blues - Master
TTITLE4=Watch That Jive
TTITLE5=Howlin' Winds
TTITLE6=Low Down Dog
TTITLE7=I Got My Discharge Papers
TTITLE8=Miss Brown Blues
TTITLE9=I'm Still In The Dark
TTITLE10=My Gal's A Jockey
TTITLE11=I Got Love For Sale
TTITLE12=Sunday Morning Blues
TTITLE13=Mad Blues
TTITLE14=Playboy Blues
TTITLE15=I'm Still In The Dark
TTITLE16=Miss Brown Blues
TTITLE17=Sally Zu-Zazz
TTITLE18=Rock Of Gibralter
TTITLE19=Milk And Butter Blues
TTITLE20=That's When It Really Hurts
TTITLE21=I'm Sharp When I Hit The Coast
TTITLE22=New Wee Baby Blues
TTITLE23=Nobody In Mind
TTITLE24=Lucille Lucille
TTITLE25=Rocks In My Bed
EXTD=
EXTT0=
EXTT1=
EXTT2=
EXTT3=
EXTT4=
EXTT5=
EXTT6=
EXTT7=
EXTT8=
EXTT9=
EXTT10=
EXTT11=
EXTT12=
EXTT13=
EXTT14=
EXTT15=
EXTT16=
EXTT17=
EXTT18=
EXTT19=
EXTT20=
EXTT21=
EXTT22=
EXTT23=
EXTT24=
EXTT25=
PLAYORDER=
